Coordinates
version=1
nRows=26
nColumns=24
inDegrees=yes

Units are S.I. units (second, meters, Newtons, ...)
Angles are in degrees.

endheader
time	pelvis_tilt	pelvis_list	pelvis_rotation	pelvis_tx	pelvis_ty	pelvis_tz	hip_flexion_r	hip_adduction_r	hip_rotation_r	knee_angle_r	ankle_angle_r	subtalar_angle_r	mtp_angle_r	hip_flexion_l	hip_adduction_l	hip_rotation_l	knee_angle_l	ankle_angle_l	subtalar_angle_l	mtp_angle_l	lumbar_extension	lumbar_bending	lumbar_rotation
      6.77000000	     11.16909073	     -1.20570268	      1.57506683	      2.34429784	      0.82657754	     -0.17140279	     -3.17231370	      6.96942577	     -3.23488092	    -15.42182710	     16.00469994	      1.55515404	      0.00000000	     -2.59670480	     -1.76301016	     -5.42514993	    -55.63910595	      9.18183205	    -19.90606453	      0.00000000	    -29.01103532	      1.74167173	     -0.42165935
      6.78000000	     11.02440368	     -0.54331972	      0.98514578	      2.35500097	      0.82840140	     -0.17058274	     -4.37708794	      6.26649841	     -2.74937433	    -14.43562663	     16.13495160	      1.66055695	      0.00000000	     -0.87156271	     -1.05738742	     -5.68587454	    -54.73587162	      9.60773903	    -20.83066187	      0.00000000	    -29.14204642	      0.70291057	     -0.21496712
      6.79000000	     10.84202317	      0.06953640	      0.37331653	      2.36555018	      0.82991978	     -0.16981358	     -5.49234944	      5.57934510	     -2.34813927	    -13.48438197	     16.28597916	      1.83968588	      0.00000000	      0.83037878	     -0.39846321	     -5.92848876	    -53.56001804	      9.88436951	    -21.55029304	      0.00000000	    -29.25624480	     -0.27522219	      0.00035476
      6.80000000	     10.63171146	      0.59833150	     -0.26754431	      2.37603533	      0.83114883	     -0.16910497	     -6.54539523	      4.94515381	     -1.98628369	    -12.55240889	     16.43254471	      2.11147100	      0.00000000	      2.48727290	      0.17032909	     -6.16151790	    -52.12588546	      9.92453925	    -22.15812210	      0.00000000	    -29.32542420	     -1.15964628	      0.31527510
      6.81000000	     10.40731628	      1.02800124	     -0.91240680	      2.38641233	      0.83203396	     -0.16846325	     -7.53558653	      4.39253042	     -1.66420231	    -11.67116148	     16.61745903	      2.39390986	      0.00000000	      4.09112860	      0.63065861	     -6.34260034	    -50.46874391	      9.80713279	    -22.71768637	      0.00000000	    -29.39281271	     -1.92759058	      0.74220875
      6.82000000	     10.16941718	      1.34014494	     -1.56668348	      2.39672261	      0.83260945	     -0.16791984	     -8.47746416	      3.93716789	     -1.34359930	    -10.82792558	     16.77944259	      2.69511112	      0.00000000	      5.62156876	      0.95847861	     -6.47758038	    -48.58449624	      9.55639393	    -23.23102219	      0.00000000	    -29.44771385	     -2.54805477	      1.20477841
      6.83000000	      9.93609468	      1.52501932	     -2.23613322	      2.40698667	      0.83288663	     -0.16746169	     -9.40071755	      3.59076410	     -1.00752831	    -10.01368396	     16.93316988	      2.99323824	      0.00000000	      7.04422950	      1.14145689	     -6.55986457	    -46.47664644	      9.15273515	    -23.78271665	      0.00000000	    -29.51043630	     -3.02020539	      1.78154235
      6.84000000	      9.70974378	      1.59530701	     -2.92558478	      2.41723264	      0.83289459	     -0.16710437	    -10.32148435	      3.33586311	     -0.66130613	     -9.21128551	     17.06485891	      3.28876994	      0.00000000	      8.33725076	      1.19362518	     -6.57903008	    -44.14297358	      8.61442132	    -24.33788908	      0.00000000	    -29.58319763	     -3.34349245	      2.46979671
      6.85000000	      9.54060614	      1.51128895	     -3.64577466	      2.42748720	      0.83266213	     -0.16674879	    -11.31433837	      3.21560559	     -0.26978046	     -8.40226715	     17.20300409	      3.60230067	      0.00000000	      9.42353784	      1.05378577	     -6.59673408	    -41.56881244	      7.97074377	    -25.04372633	      0.00000000	    -29.71802896	     -3.53067018	      3.27778325
      6.86000000	      9.50421612	      1.38124284	     -4.38045439	      2.43783547	      0.83233375	     -0.16645903	    -12.48622485	      3.10262253	      0.14527830	     -7.54432069	     17.31802889	      3.89857471	      0.00000000	     10.17560790	      0.87021948	     -6.54338784	    -38.69559199	      7.27024927	    -25.72344399	      0.00000000	    -29.99688986	     -3.66678357	      4.10445784
      6.87000000	      9.39505554	      1.12765035	     -5.15565363	      2.44821094	      0.83167103	     -0.16617257	    -13.58261218	      3.08563804	      0.54873820	     -6.70288736	     17.45657478	      4.27619689	      0.00000000	     10.85175589	      0.50717657	     -6.54533470	    -35.61925366	      6.58304865	    -26.31767130	      0.00000000	    -30.18595002	     -3.67799926	      5.08709511
      6.88000000	      9.27800383	      0.73228570	     -5.93407663	      2.45859556	      0.83075763	     -0.16588805	    -14.68891447	      3.18762475	      0.95804724	     -5.86684923	     17.58087229	      4.73315181	      0.00000000	     11.37924343	     -0.03727123	     -6.54813251	    -32.35537323	      5.95030842	    -26.76689143	      0.00000000	    -30.37950487	     -3.55438583	      6.16292682
      6.89000000	      9.24034609	      0.35862415	     -6.75038541	      2.46921408	      0.82969623	     -0.16566682	    -15.91682196	      3.20685046	      1.42867428	     -5.00918527	     17.76058599	      5.19060237	      0.00000000	     11.60603742	     -0.56293766	     -6.66517159	    -28.79792084	      5.39192053	    -27.05178966	      0.00000000	    -30.62206180	     -3.44579943	      7.26888099
      6.90000000	      9.34592112	     -0.00568583	     -7.56142167	      2.48009501	      0.82855261	     -0.16536756	    -17.33902636	      3.17300002	      1.89980038	     -4.12434346	     17.91805228	      5.58430445	      0.00000000	     11.47989981	     -1.07113803	     -6.84097572	    -25.00916095	      4.99651359	    -26.94543904	      0.00000000	    -30.97584486	     -3.42885061	      8.35276391
      6.91000000	      9.24090211	     -0.56866270	     -8.33195954	      2.49096784	      0.82695476	     -0.16527270	    -18.50588273	      3.32979467	      2.41998457	     -3.37857748	     18.11003052	      6.11187952	      0.00000000	     11.50854583	     -1.81381384	     -7.09455163	    -21.24316501	      4.75645297	    -26.47502647	      0.00000000	    -31.12505939	     -3.08933237	      9.51254404
      6.92000000	      9.28384176	     -1.04174391	     -9.17141274	      2.50226002	      0.82531102	     -0.16504093	    -19.84811370	      3.32260290	      3.01058075	     -2.64800896	     18.31207055	      6.49862200	      0.00000000	     11.20575296	     -2.44683720	     -7.60385462	    -17.36225845	      4.70888552	    -25.40302165	      0.00000000	    -31.33367440	     -2.95889812	     10.68231440
      6.93000000	      9.29958733	     -1.57682202	     -9.95730124	      2.51376399	      0.82345540	     -0.16503428	    -21.15768068	      3.33543148	      3.73215329	     -2.00268442	     18.50627571	      6.87602355	      0.00000000	     10.87887499	     -3.10608363	     -8.17355646	    -13.61964341	      4.77050758	    -23.82403810	      0.00000000	    -31.49476620	     -2.68098198	     11.80682790
      6.94000000	      9.25992636	     -2.14080809	    -10.74500434	      2.52553130	      0.82140103	     -0.16512709	    -22.35657397	      3.34945664	      4.43555246	     -1.51517490	     18.72432909	      7.19544306	      0.00000000	     10.54404593	     -3.76129976	     -8.80850774	    -10.05052143	      4.85790445	    -21.95107565	      0.00000000	    -31.55172209	     -2.34356181	     12.92183493
      6.95000000	      9.23091843	     -2.69544592	    -11.48523849	      2.53755867	      0.81927131	     -0.16541416	    -23.53161531	      3.31607245	      5.19419225	     -1.14363338	     18.92806350	      7.47942601	      0.00000000	     10.18313721	     -4.35263044	     -9.39506347	     -6.80285741	      4.94541563	    -19.81679283	      0.00000000	    -31.59144929	     -1.95818319	     13.94230240
      6.96000000	      9.17821420	     -3.23159503	    -12.17851498	      2.54981423	      0.81709939	     -0.16588071	    -24.61261611	      3.24853462	      5.89927146	     -0.93326919	     19.11933636	      7.75901550	      0.00000000	      9.84513372	     -4.87926795	     -9.81409278	     -3.93202681	      4.90589898	    -17.80986381	      0.00000000	    -31.58380537	     -1.53483686	     14.86243615
      6.97000000	      9.04262125	     -3.81068377	    -12.74733231	      2.56215987	      0.81487960	     -0.16650327	    -25.50242949	      3.28389369	      6.38951351	     -0.95980844	     19.28714010	      8.07499577	      0.00000000	      9.60776605	     -5.43227248	     -9.72775820	     -1.49362515	      4.61795504	    -16.37685982	      0.00000000	    -31.51804499	     -1.00376223	     15.61754888
      6.98000000	      9.18034105	     -4.11545295	    -13.46266281	      2.57504441	      0.81304088	     -0.16707580	    -26.63066843	      2.86921159	      6.98782179	     -1.01588286	     19.44842208	      8.38263305	      0.00000000	      9.07606330	     -5.61567621	    -10.26980442	      0.49598021	      4.54282589	    -14.78291350	      0.00000000	    -31.60021035	     -0.83972494	     16.27530526
      6.99000000	      9.20080004	     -4.46852814	    -14.06618013	      2.58794140	      0.81124725	     -0.16781745	    -27.50347817	      2.56977577	      7.35180698	     -1.33669314	     19.53313928	      8.80776077	      0.00000000	      8.70830294	     -5.84259845	    -10.43224457	      1.95989666	      4.29399606	    -13.94701588	      0.00000000	    -31.60971889	     -0.55165790	     16.81097564
      7.00000000	      9.19471716	     -4.76250338	    -14.61749949	      2.60104458	      0.80958401	     -0.16864260	    -28.24861191	      2.22851112	      7.60838684	     -1.83433672	     19.54342322	      9.26103806	      0.00000000	      8.40546056	     -5.98446494	    -10.55787902	      2.89544202	      4.08001090	    -13.60134366	      0.00000000	    -31.55775348	     -0.28133647	     17.24565352
      7.01000000	      9.35821453	     -4.83675135	    -15.24207131	      2.61443563	      0.80833841	     -0.16941074	    -29.03550708	      1.57304098	      7.74483108	     -2.48961805	     19.48333096	      9.87914502	      0.00000000	      7.93524113	     -5.81702969	    -11.04535932	      3.39124379	      3.72571874	    -13.61286228	      0.00000000	    -31.63059885	     -0.35463225	     17.49465539
      7.02000000	      9.68885517	     -4.81225557	    -15.74602776	      2.62819152	      0.80738267	     -0.17035258	    -29.92881396	      0.80676262	      7.64680559	     -3.24338169	     19.27320832	     10.59376046	      0.00000000	      7.32918580	     -5.45093685	    -11.48914630	      3.42880966	      3.44156023	    -13.99885280	      0.00000000	    -31.79623839	     -0.50012884	     17.58531708
